<svg width="24" height="24" viewBox="0 0 24 24" fill="none" xmlns="http://www.w3.org/2000/svg">
<mask id="mask0_403_382" style="mask-type:alpha" maskUnits="userSpaceOnUse" x="0" y="0" width="24" height="24">
<rect width="24" height="24" fill="#D9D9D9"/>
</mask>
<g mask="url(#mask0_403_382)">
<path d="M12.7992 23C11.4326 23 10.1492 22.6875 8.94922 22.0625C7.74922 21.4375 6.76589 20.5667 5.99922 19.45L1.19922 12.4L1.67422 11.925C2.00755 11.575 2.42005 11.375 2.91172 11.325C3.40339 11.275 3.84922 11.3917 4.24922 11.675L6.99922 13.575V4C6.99922 3.71667 7.09505 3.47917 7.28672 3.2875C7.47839 3.09583 7.71589 3 7.99922 3C8.28255 3 8.52005 3.09583 8.71172 3.2875C8.90339 3.47917 8.99922 3.71667 8.99922 4V17.425L5.29922 14.85L7.67422 18.3C8.25755 19.15 8.99922 19.8125 9.89922 20.2875C10.7992 20.7625 11.7659 21 12.7992 21C14.5159 21 15.9784 20.3958 17.1867 19.1875C18.3951 17.9792 18.9992 16.5167 18.9992 14.8V5C18.9992 4.71667 19.0951 4.47917 19.2867 4.2875C19.4784 4.09583 19.7159 4 19.9992 4C20.2826 4 20.5201 4.09583 20.7117 4.2875C20.9034 4.47917 20.9992 4.71667 20.9992 5V14.8C20.9992 17.0833 20.2034 19.0208 18.6117 20.6125C17.0201 22.2042 15.0826 23 12.7992 23ZM10.9992 12V2C10.9992 1.71667 11.0951 1.47917 11.2867 1.2875C11.4784 1.09583 11.7159 1 11.9992 1C12.2826 1 12.5201 1.09583 12.7117 1.2875C12.9034 1.47917 12.9992 1.71667 12.9992 2V12H10.9992ZM14.9992 12V3C14.9992 2.71667 15.0951 2.47917 15.2867 2.2875C15.4784 2.09583 15.7159 2 15.9992 2C16.2826 2 16.5201 2.09583 16.7117 2.2875C16.9034 2.47917 16.9992 2.71667 16.9992 3V12H14.9992Z" fill="#FAF7F7"/>
</g>
</svg>
