<svg width="24" height="24" viewBox="0 0 24 24" fill="none" xmlns="http://www.w3.org/2000/svg">
<mask id="mask0_623_266" style="mask-type:alpha" maskUnits="userSpaceOnUse" x="0" y="0" width="24" height="24">
<rect width="24" height="24" fill="#D9D9D9"/>
</mask>
<g mask="url(#mask0_623_266)">
<path d="M12 22.4804C10.5507 22.4804 9.18947 22.2038 7.91628 21.6506C6.64308 21.0973 5.53293 20.3471 4.58583 19.4C3.63873 18.4529 2.8909 17.3404 2.34233 16.0625C1.7938 14.7846 1.51953 13.421 1.51953 11.9717C1.51953 10.5224 1.79381 9.16354 2.34236 7.89506C2.89091 6.62657 3.63873 5.52113 4.58583 4.57873C5.53293 3.63635 6.64308 2.89088 7.91628 2.34233C9.18947 1.7938 10.5507 1.51953 12 1.51953C13.4493 1.51953 14.8105 1.79381 16.0837 2.34236C17.3569 2.89091 18.467 3.63637 19.4141 4.57876C20.3612 5.52116 21.1091 6.6266 21.6576 7.89508C22.2062 9.16357 22.4804 10.5224 22.4804 11.9717C22.4804 13.421 22.2062 14.7846 21.6576 16.0625C21.1091 17.3404 20.3612 18.4529 19.4141 19.4C18.467 20.3471 17.3569 21.0973 16.0837 21.6506C14.8105 22.2038 13.4493 22.4804 12 22.4804ZM12 19.8304C12.8246 19.8304 13.6253 19.7081 14.4022 19.4636C15.179 19.219 15.8891 18.8453 16.5326 18.3424L5.62933 7.45326C5.14526 8.11557 4.78096 8.83042 4.53641 9.59781C4.29184 10.3652 4.16956 11.1565 4.16956 11.9717C4.16956 14.1579 4.93042 16.0143 6.45216 17.5407C7.97389 19.0672 9.82316 19.8304 12 19.8304ZM18.3848 16.4902C18.8594 15.8279 19.219 15.113 19.4636 14.3456C19.7081 13.5782 19.8304 12.7869 19.8304 11.9717C19.8304 9.79492 19.0695 7.95035 17.5478 6.43803C16.0261 4.92571 14.1768 4.16956 12 4.16956C11.1848 4.16956 10.3958 4.28712 9.63316 4.52226C8.87047 4.75741 8.15797 5.1123 7.49566 5.58693L18.3848 16.4902Z" fill="#FAF7F7"/>
</g>
</svg>
