<svg width="124" height="129" viewBox="0 0 124 129" fill="none" xmlns="http://www.w3.org/2000/svg">
<g id="Logo" clip-path="url(#clip0_126_618)">
<path id="Vector" d="M36.3147 57.7251C36.3147 48.837 43.5397 41.6167 52.4334 41.6167H57.8379V35.8555C57.8379 31.3073 56.1881 29.4122 51.6749 29.1279C50.2905 29.0521 50.1199 28.5594 50.1388 27.4034C50.2147 25.1292 50.2716 22.8551 50.1388 20.581C49.6079 11.8445 45.3032 5.64751 37.3577 1.8952C35.5562 1.06135 33.5651 0.928695 31.8204 0.019043H25.6195C25.373 0.644429 24.7661 0.625477 24.2541 0.739184C16.631 2.57744 11.5868 7.29626 8.85607 14.5545C7.30109 18.6859 7.8131 22.9878 7.79414 27.2328C7.79414 28.5783 7.58554 29.09 6.04953 29.1469C2.0483 29.3174 0.0382103 31.421 0.0382103 35.2112C0.000284053 44.3267 0.000284053 53.4232 0.0382103 62.5197C0.0571735 66.5184 2.37068 68.7167 6.39086 68.7167C16.3655 68.7167 26.3401 68.7167 36.3147 68.7167V57.7251ZM13.7296 29.1089C12.4022 29.1279 11.9471 28.7868 11.985 27.4034C12.0988 22.6845 11.6816 17.9278 14.033 13.5122C17.3136 7.35311 24.7282 3.52499 31.4601 4.64311C38.742 5.85598 44.4499 11.5034 45.6066 18.5911C46.1186 21.6801 45.7204 24.7692 45.9101 27.8582C45.9859 29.1469 45.2653 29.1089 44.3551 29.1089C39.1781 29.1089 34.0012 29.1089 28.8243 29.1089C23.799 29.1089 18.7548 29.0521 13.7106 29.1279L13.7296 29.1089ZM31.0998 49.0265V50.8837C31.0998 52.2103 30.3792 52.9305 29.1277 53.0821C27.7813 53.2337 27.0038 52.3809 26.8521 51.2059C26.6814 49.7277 26.6625 48.1737 26.8331 46.6956C26.9659 45.5206 27.7813 44.7057 29.1087 44.7815C30.3224 44.8573 30.9292 45.6343 31.0619 46.7714C31.1378 47.5104 31.0619 48.2874 31.0619 49.0265H31.0998Z" fill="#54606C"/>
<g id="Group">
<path id="Vector_2" d="M107.881 43.4927H54.5562C45.6541 43.4927 38.4375 50.7047 38.4375 59.6011V112.892C38.4375 121.788 45.6541 129 54.5562 129H107.881C116.783 129 123.999 121.788 123.999 112.892V59.6011C123.999 50.7047 116.783 43.4927 107.881 43.4927Z" fill="#629DD3"/>
<path id="Vector_3" d="M54.6518 83.3467V79.8218C54.8224 79.7649 54.7466 79.6133 54.7656 79.5186C55.0879 76.9412 55.9223 74.5534 57.2877 72.3551C61.725 65.2105 70.3533 61.913 78.2799 63.1827C82.7931 63.9218 86.7185 65.8359 89.9422 69.0955C90.0749 69.2471 90.2456 69.3039 90.4352 69.3229C94.7019 69.8725 98.4566 71.5591 101.68 74.4207C108.488 80.4472 109.778 90.1691 104.714 97.6926C104.525 97.9769 104.525 98.2043 104.62 98.4886C105.549 101.388 106.478 104.307 107.407 107.206C107.805 108.438 107.502 109.101 106.345 109.575H105.625C102.629 108.059 99.6324 106.543 96.6551 104.989C96.238 104.78 95.9345 104.78 95.4984 104.951C91.8954 106.391 88.1407 106.808 84.3101 106.221C79.759 105.538 75.7957 103.605 72.534 100.308C72.3634 100.137 72.1927 100.062 71.9462 100.024C70.1826 99.8152 68.4949 99.3603 66.864 98.6971C66.4848 98.5454 66.1814 98.5644 65.8021 98.7539C62.9766 100.213 60.1511 101.634 57.3256 103.075C56.9084 103.283 56.5102 103.435 56.0361 103.321C55.069 103.075 54.6328 102.184 54.9741 101.104C55.9223 98.1475 56.8515 95.1911 57.8186 92.2537C57.9134 91.9505 57.8945 91.7231 57.7048 91.4577C56.3964 89.5626 55.5051 87.478 55.0121 85.2418C54.8793 84.6164 54.8793 83.9531 54.6328 83.3467H54.6518ZM70.4291 87.7812C70.4291 88.4824 70.486 89.1647 70.5998 89.8469C71.3962 94.7363 74.0511 98.3938 78.2799 100.839C83.6843 103.965 89.3543 104.174 95.1002 101.767C95.8966 101.426 96.5603 101.445 97.3189 101.843C99.1772 102.828 101.055 103.757 102.932 104.705C103.046 104.761 103.178 104.913 103.311 104.799C103.444 104.686 103.311 104.553 103.254 104.42C102.647 102.506 102.06 100.573 101.415 98.6592C101.13 97.8253 101.263 97.162 101.794 96.4419C103.634 94.0161 104.62 91.2682 104.696 88.2361C104.79 83.5362 102.932 79.6702 99.4427 76.6001C93.3745 71.2559 83.874 70.7442 77.2558 75.4062C72.9702 78.4194 70.5998 82.4939 70.4291 87.7812ZM69.5378 96.3471C69.443 96.1576 69.3861 96.0439 69.3293 95.9302C66.9589 91.2303 66.5796 86.3788 68.5518 81.5084C71.1497 75.0271 76.156 71.3127 82.831 69.6829C83.6085 69.4934 84.4239 69.3797 85.2962 69.2281C82.5845 67.4088 79.7021 66.3855 76.5352 66.1201C71.6238 65.7222 67.2054 66.9729 63.3938 70.1188C59.9235 72.9804 57.9514 76.6759 57.7997 81.2431C57.6859 84.6353 58.7289 87.6675 60.7769 90.3586C61.2509 90.984 61.3647 91.6093 61.1182 92.3484C60.4735 94.2815 59.8666 96.2145 59.2598 98.1664C59.2219 98.2991 59.0512 98.4696 59.184 98.5833C59.3357 98.735 59.5063 98.5454 59.6391 98.4696C61.5164 97.5221 63.4127 96.5935 65.2711 95.608C65.9917 95.229 66.6554 95.2101 67.376 95.5701C68.0398 95.9112 68.7604 96.1576 69.5568 96.3661L69.5378 96.3471Z" fill="white"/>
</g>
</g>
<defs>
<clipPath id="clip0_126_618">
<rect width="124" height="129" fill="white"/>
</clipPath>
</defs>
</svg>
