<svg width="27" height="27" viewBox="0 0 27 27" fill="none" xmlns="http://www.w3.org/2000/svg">
<mask id="mask0_187_446" style="mask-type:alpha" maskUnits="userSpaceOnUse" x="0" y="0" width="27" height="27">
<rect width="27" height="27" fill="#D9D9D9"/>
</mask>
<g mask="url(#mask0_187_446)">
<path d="M6.75 15.75H10.1813L15.8063 10.125C15.975 9.95625 16.1016 9.76406 16.1859 9.54844C16.2703 9.33281 16.3125 9.12188 16.3125 8.91563C16.3125 8.70938 16.2656 8.50781 16.1719 8.31094C16.0781 8.11406 15.9563 7.93125 15.8063 7.7625L14.7938 6.69375C14.625 6.525 14.4375 6.39844 14.2313 6.31406C14.025 6.22969 13.8094 6.1875 13.5844 6.1875C13.3781 6.1875 13.1672 6.22969 12.9516 6.31406C12.7359 6.39844 12.5437 6.525 12.375 6.69375L6.75 12.3187V15.75ZM8.4375 14.0625V12.9938L11.2781 10.1531L11.8406 10.6594L12.3469 11.2219L9.50625 14.0625H8.4375ZM11.8406 10.6594L12.3469 11.2219L11.2781 10.1531L11.8406 10.6594ZM12.5719 15.75H20.25V13.5H14.8219L12.5719 15.75ZM2.25 24.75V4.5C2.25 3.88125 2.47031 3.35156 2.91094 2.91094C3.35156 2.47031 3.88125 2.25 4.5 2.25H22.5C23.1187 2.25 23.6484 2.47031 24.0891 2.91094C24.5297 3.35156 24.75 3.88125 24.75 4.5V18C24.75 18.6187 24.5297 19.1484 24.0891 19.5891C23.6484 20.0297 23.1187 20.25 22.5 20.25H6.75L2.25 24.75ZM5.79375 18H22.5V4.5H4.5V19.2656L5.79375 18Z" fill="#FAF7F7"/>
</g>
</svg>
