<svg width="27" height="27" viewBox="0 0 27 27" fill="none" xmlns="http://www.w3.org/2000/svg">
<path d="M0.00313182 13.359C0.00454893 13.3576 0.00638471 13.3566 0.00832435 13.3561C0.0738951 13.3391 0.0638407 13.2767 0.0795051 13.2349C0.381624 12.4081 0.991163 11.9788 1.87102 11.9735C2.22614 11.9735 2.21554 11.9735 2.22614 11.613C2.24204 10.9399 2.15724 10.2615 2.28445 9.59361C2.56006 8.20492 3.71554 7.18196 5.12543 7.11305C5.96288 7.07065 6.80033 7.09715 7.64309 7.09715C9.29679 7.09715 10.9452 7.09715 12.5989 7.09715C12.8003 7.09715 12.8639 7.04945 12.8586 6.84274C12.848 6.10069 12.848 5.35334 12.8586 4.61129C12.8586 4.44698 12.8162 4.37808 12.6519 4.32508C11.6872 4.02296 11.0406 3.1219 11.083 2.15724C11.1307 1.10247 11.8251 0.275618 12.8586 0.047703C12.9163 0.0380828 12.9785 0 13.037 0H13.3465C13.5136 0 13.6901 0.051303 13.8559 0.0722125C13.8683 0.0737828 13.8805 0.0760626 13.8922 0.0795051C14.8409 0.355123 15.4929 1.19788 15.5141 2.18904C15.5353 3.1378 14.9099 4.02296 13.9876 4.30918C13.7809 4.37278 13.7332 4.46288 13.7332 4.6696C13.7438 5.38514 13.7491 6.10599 13.7332 6.82684C13.7332 7.03885 13.7809 7.10245 14.0035 7.10245C16.3992 7.09185 18.8003 7.09185 21.1961 7.10245C22.8074 7.10245 24.0635 8.14132 24.3339 9.71552C24.4399 10.341 24.3604 10.977 24.371 11.6077C24.3763 11.9682 24.371 11.9682 24.7208 11.9735C25.8444 11.9841 26.5918 12.7314 26.5918 13.8498C26.5918 14.6713 26.5918 15.4929 26.5918 16.3144C26.5918 17.4328 25.8391 18.1802 24.7155 18.1855C24.6731 18.1855 24.6307 18.1908 24.5883 18.1855C24.4187 18.159 24.3657 18.2226 24.371 18.3975C24.3816 18.8904 24.3763 19.3833 24.371 19.8763C24.3604 21.7155 23.0141 23.0618 21.1695 23.0618C17.9575 23.0618 14.7455 23.0618 11.5388 23.0618C11.3109 23.0618 11.1254 23.1201 10.9346 23.2473C9.3445 24.318 7.74379 25.378 6.14839 26.4434C5.96288 26.5653 5.77737 26.6819 5.54945 26.5547C5.32684 26.4275 5.31094 26.2155 5.31094 25.9929C5.31094 25.1289 5.30564 24.2596 5.31624 23.3957C5.31624 23.1625 5.28444 23.0671 5.01412 23.0353C3.56183 22.8763 2.50706 21.8851 2.25794 20.454C2.15724 19.8816 2.23144 19.2985 2.21554 18.7155C2.21554 18.6625 2.21554 18.6095 2.21554 18.5618C2.21554 18.3144 2.0954 18.1908 1.85512 18.1908C0.985863 18.1855 0.360423 17.7402 0.0689044 16.9187C0.0365901 16.8325 0 16.7287 0 16.6366V13.3666C0 13.3637 0.00112655 13.361 0.00313182 13.359ZM6.21696 25.3098C6.21551 25.3127 6.21874 25.3157 6.22151 25.314C6.32248 25.2535 6.39429 25.2123 6.46111 25.166C7.7703 24.2915 9.08478 23.4275 10.3834 22.5423C10.765 22.2826 11.1572 22.166 11.6183 22.166C14.7932 22.1766 17.9734 22.1713 21.1483 22.166C22.5582 22.166 23.4911 21.2279 23.4964 19.8233C23.4964 16.6484 23.4964 13.4682 23.4964 10.2933C23.4964 8.92577 22.5688 7.98231 21.2067 7.98231C15.9381 7.98231 10.6643 7.98231 5.39574 7.98231C4.06536 7.98231 3.1272 8.92577 3.1219 10.2562C3.1166 13.4682 3.1219 16.6802 3.1219 19.8869C3.1219 20.1731 3.1537 20.4593 3.26501 20.7243C3.65193 21.6519 4.36218 22.1077 5.35334 22.166C5.87278 22.1978 6.1961 22.5317 6.2173 23.0512C6.2279 23.2844 6.2173 23.5176 6.2173 23.7508C6.2173 24.2594 6.2173 24.7627 6.2173 25.3084C6.2173 25.3089 6.21718 25.3093 6.21696 25.3098ZM2.22614 15.0689C2.22614 14.401 2.22614 13.7385 2.22614 13.0706C2.22614 12.9858 2.27385 12.8745 2.11484 12.8586C1.25618 12.7685 0.874556 13.2455 0.885156 13.8551C0.901057 14.6342 0.885156 15.4081 0.885156 16.1872C0.885156 16.9823 1.21378 17.3003 2.00353 17.3003C2.19964 17.3003 2.22614 17.2314 2.22614 17.0618C2.21554 16.3992 2.22614 15.7314 2.22614 15.0636V15.0689ZM25.7066 15.0821C25.7091 15.0833 25.7119 15.0816 25.7119 15.0788C25.7118 14.6833 25.6961 14.2877 25.7119 13.8922C25.7437 13.2826 25.378 12.7685 24.4876 12.8586C24.3763 12.8692 24.371 12.9275 24.371 13.0123C24.371 14.3851 24.371 15.7579 24.371 17.1307C24.371 17.1943 24.3498 17.2632 24.4505 17.295C25.0388 17.4805 25.6907 17.0194 25.7013 16.3992C25.7119 15.9613 25.7014 15.5233 25.7013 15.0854C25.7013 15.0827 25.7042 15.0809 25.7066 15.0821ZM13.3038 3.55123C14.0353 3.55123 14.6236 2.96819 14.6289 2.23674C14.6342 1.5053 14.03 0.895757 13.2932 0.895757C12.5671 0.895757 11.9735 1.48939 11.9682 2.21554C11.9576 2.94699 12.5618 3.55123 13.3038 3.55123Z" fill="#FAF7F7"/>
<path d="M10.1915 13.7386C10.1915 14.9683 9.22153 15.9542 7.99715 15.9595C6.77277 15.9648 5.77631 14.9895 5.76571 13.7704C5.75511 12.5302 6.74097 11.5337 7.97595 11.5337C9.20033 11.5337 10.1862 12.5143 10.1915 13.7333V13.7386ZM7.98655 15.0743C8.718 15.0743 9.30104 14.486 9.30104 13.7545C9.30104 13.0125 8.7127 12.4188 7.97065 12.4241C7.2445 12.4241 6.65087 13.0231 6.65087 13.7439C6.65087 14.4807 7.2498 15.0796 7.98655 15.0743Z" fill="#FAF7F7"/>
<path d="M16.4082 13.7491C16.4082 12.5247 17.3888 11.5388 18.6131 11.5388C19.8481 11.5388 20.8393 12.53 20.834 13.765C20.834 14.984 19.8375 15.9646 18.6131 15.9646C17.3888 15.9646 16.4082 14.9787 16.4082 13.7544V13.7491ZM18.6184 12.424C17.887 12.424 17.2987 13.007 17.2934 13.7385C17.2934 14.4858 17.8764 15.0794 18.6184 15.0794C19.3446 15.0794 19.9382 14.4911 19.9435 13.765C19.9488 13.0282 19.3552 12.4293 18.6131 12.424H18.6184Z" fill="#FAF7F7"/>
<path d="M13.3034 18.6256C13.3034 18.6227 13.301 18.6203 13.2981 18.6203C12.5103 18.6195 11.7754 18.4549 11.1355 17.9736C10.9818 17.857 10.844 17.7298 10.7327 17.5708C10.5896 17.3694 10.6214 17.115 10.7963 16.9666C10.9765 16.8129 11.2574 16.8076 11.4005 17.009C12.0154 17.8835 13.9023 17.9206 14.7398 17.4012C14.8935 17.3058 15.0313 17.1839 15.1532 17.0514C15.3493 16.8341 15.5931 16.8023 15.7945 16.9666C15.9959 17.1309 16.0118 17.4012 15.821 17.6344C15.3811 18.1645 14.7875 18.4242 14.1302 18.562C13.8616 18.6147 13.5878 18.6307 13.3087 18.6309C13.3057 18.6309 13.3034 18.6285 13.3034 18.6256Z" fill="#FAF7F7"/>
</svg>
